<svg width="181" height="153" viewBox="0 0 181 153" fill="none" xmlns="http://www.w3.org/2000/svg">
<path d="M134.512 20.5839C124.08 14.6662 112.347 12.19 100.192 11.2056L100.917 12.8608L100.76 14.6852L100.173 16.0287L98.5398 17.0701L97.3962 17.4502L96.3441 20.067L95.557 23.807L100.716 23.7443L105.672 23.8811L106.755 25.0213L106.924 27.1536L106.694 33.2747L108.055 34.8254L109.364 36.7106L109.717 37.925L109.124 39.3863L110.601 41.2145L114.75 46.9784L119.414 53.5974L122.633 58.5916L123.606 59.863L125.967 61.1933L126.783 62.8637L126.621 64.7337L125.738 66.081L124.175 66.8317L122.269 66.6417L120.861 65.5603L119.923 62.9777L114.684 57.744L106.854 49.1106L106.934 53.8616V61.2028L106.854 64.4334L105.914 65.6268L105.047 66.0183L102.056 66.0696L77.6044 62.2119L76.8763 61.9344C76.594 61.8772 76.323 61.7745 76.0739 61.6303C76.0358 61.6051 76.0007 61.5758 75.9691 61.5429C75.8604 61.4175 75.7384 61.064 75.6184 60.5205C75.3553 59.3271 75.0999 57.2176 75.0065 54.6008L74.9665 54.2207L74.9761 53.4815C74.957 52.3413 74.976 51.1079 75.0218 49.8328L75.039 48.5025L75.1781 47.387C75.2924 46.0225 75.4602 44.6257 75.6908 43.227V43.2156V43.2023C75.8947 41.9766 76.1482 40.7489 76.4532 39.5441V39.5308C76.9151 37.7033 77.5448 35.922 78.3344 34.2097C77.4618 33.8386 76.6312 33.3761 75.8566 32.83L75.8261 32.8091C75.6527 32.6875 75.4792 32.564 75.3115 32.429L73.8401 31.3629L72.7727 30.1258C72.5669 29.9041 72.3763 29.6893 72.2009 29.4815C71.9338 29.1663 71.6898 28.8322 71.4709 28.4819L71.1622 28.0354L71.1946 27.8814C71.1819 27.8424 71.173 27.8023 71.1679 27.7617C71.1631 27.4123 71.2534 27.0682 71.429 26.7659L67.9982 22.6421L65.7568 18.7235L65.4861 16.8098L65.9798 15.4092L68.2212 13.0318L71.1202 10.8445C57.4181 11.5324 44.93 13.9497 37.9293 21.5531C28.954 31.3078 29.0836 49.6883 27.7227 66.4535C26.3618 83.2187 23.48 98.4009 27.8523 112.614C31.426 124.311 39.9363 135.394 50.3144 140.141C66.7384 128.807 98.0595 112.169 128.027 100.674C128.559 100.2 129.099 99.7223 129.648 99.2408C141.932 88.4182 158.325 74.9159 160.294 60.1518C162.244 45.3593 149.771 29.2725 134.512 20.5839Z" fill="#EEF0F1"/>
<path d="M86.5625 13.1628C86.332 13.961 86.2159 14.7876 86.2175 15.6181C86.2175 18.7101 87.7824 21.3421 89.9724 22.3322L89.6941 25.0136" stroke="#222222" stroke-width="2.5" stroke-miterlimit="10" stroke-linecap="round"/>
<path d="M91.7792 27.5698C93.1248 27.8776 94.6058 27.9498 94.7335 27.5166C94.9241 26.8362 95.9876 21.785 96.3574 20.0157C96.8249 19.2574 97.1612 18.4261 97.3523 17.5566" stroke="#222222" stroke-width="2.5" stroke-miterlimit="10" stroke-linecap="round"/>
<path d="M139.313 96.5763C137.721 96.0328 132.514 89.1648 132.514 81.0141C132.514 71.554 142.568 53.62 143.521 47.2291C144.129 43.1679 146.872 7.3894 167.701 7.3894C179.058 7.3894 180.006 29.5308 180.006 39.4337C180.006 62.5671 146.27 82.2721 146.27 94.2883C144.008 95.2145 141.683 95.9791 139.313 96.5763Z" fill="#27C96C"/>
<path d="M141.874 95.7175C141.874 77.1659 155.76 43.3657 167.973 31.4712" stroke="#EEF0F1" stroke-width="4" stroke-miterlimit="10" stroke-linecap="round"/>
<path d="M61.6932 132.872C60.6297 132.556 57.7383 128.881 57.7383 124.145C57.7383 119.584 59.0229 112.933 59.0229 106.762C59.0229 103.33 57.7383 102.114 57.7383 98.0302C57.7383 91.5214 63.9251 89.5393 66.0942 89.5393C69.2867 89.5393 70.9945 92.2626 70.9945 93.7049C70.9945 95.7174 70.4227 97.2454 70.4227 99.4726C70.4227 103.826 71.9475 104.372 71.7874 108.123C71.3109 119.09 66.7441 129.812 62.7301 132.245L61.6932 132.872Z" fill="#27C96C"/>
<path d="M61.6932 132.872C62.9969 131.751 55.6969 96.2894 49.3652 90.0143C42.4769 83.1862 36.8142 79.5812 34.9445 77.3444C31.628 73.3745 29.5162 58.4033 14.9182 58.4033C11.0567 58.4033 1.95746 61.5865 0.320213 75.0583C-0.215371 79.4805 -1.18933 86.2458 8.04139 96.0499C14.2587 102.656 22.0352 100.381 29.6363 107.538C35.1084 112.69 34.3422 120.46 39.4521 127.026C43.5405 132.271 54.155 139.346 61.6932 132.872Z" fill="#60E298"/>
<path d="M59.9016 133.718C59.9016 124.818 31.7443 84.6516 20.478 78.9067" stroke="#EEF0F1" stroke-width="4" stroke-miterlimit="10" stroke-linecap="round"/>
<path d="M61.6932 132.872C61.413 130.762 60.2313 112.842 63.5801 106.312" stroke="#EEF0F1" stroke-width="4" stroke-miterlimit="10" stroke-linecap="round"/>
<path d="M39.4541 149.335C47.8786 137.338 123.152 96.4074 168.372 88.8477" stroke="#333333" stroke-width="7" stroke-miterlimit="10" stroke-linecap="round"/>
<path d="M83.9952 27.1764V25.9792C83.9952 25.3744 84.2362 24.7943 84.6651 24.3667C85.0941 23.939 85.6758 23.6987 86.2824 23.6987H89.8295" stroke="#222222" stroke-width="2.5" stroke-miterlimit="10" stroke-linecap="round"/>
<path d="M106.854 49.1104V63.7927C106.854 64.3975 106.613 64.9776 106.184 65.4053C105.755 65.8329 105.173 66.0732 104.567 66.0732H101.309" stroke="#222222" stroke-width="2.5" stroke-miterlimit="10" stroke-linecap="round"/>
<path d="M95.5818 23.6987H104.567C105.173 23.6987 105.755 23.939 106.184 24.3667C106.613 24.7943 106.854 25.3744 106.854 25.9792V33.4154" stroke="#222222" stroke-width="2.5" stroke-miterlimit="10" stroke-linecap="round"/>
<path d="M85.9602 135.357V140.298H72.5039V138.208L80.8407 134.39L85.9602 135.357Z" stroke="#222222" stroke-width="2.5" stroke-miterlimit="10" stroke-linecap="round" stroke-linejoin="round"/>
<path d="M115.151 130.62C115.831 132.14 117.438 136.08 117.438 136.08L110.723 140.289H104.639L103.926 137.963L111.569 132.131L115.151 130.62Z" stroke="#222222" stroke-width="2.5" stroke-miterlimit="10" stroke-linecap="round" stroke-linejoin="round"/>
<path d="M83.3719 27.6267C82.5295 24.2877 80.9475 20.8632 79.3065 20.7112C76.2569 20.4299 70.9544 26.1463 71.1679 27.7692C71.3089 28.8448 74.7683 32.7102 78.3439 34.1887" stroke="#222222" stroke-width="2.5" stroke-miterlimit="10" stroke-linecap="round"/>
<path d="M95.1453 25.7283C96.5252 26.5473 97.6726 27.9023 98.6161 29.6165" stroke="#222222" stroke-width="2.5" stroke-miterlimit="10" stroke-linecap="round"/>
<path d="M102.295 45.1273C102.821 52.8087 102.014 59.9503 100.835 60.872C98.1661 62.9624 77.2955 63.0575 75.9613 61.5372C74.6786 60.0758 71.7243 27.5355 89.6845 25.0137" stroke="#222222" stroke-width="2.5" stroke-miterlimit="10" stroke-linecap="round"/>
<path d="M94.3695 13.4023C94.8079 14.1302 95.2806 14.8048 95.7666 14.9683C95.7958 14.9774 95.8244 14.9881 95.8524 15.0006" stroke="#222222" stroke-width="2.5" stroke-linecap="round" stroke-linejoin="round"/>
<path d="M83.1699 8.3833C83.0065 8.58851 82.9154 8.8416 82.9106 9.10355C82.9106 10.8367 82.9564 13.1628 86.5663 13.1628C86.8065 12.3304 87.7099 10.5022 88.7392 9.68886C88.9298 9.76868 89.4025 9.96822 89.9762 10.202" stroke="#FEBA12" stroke-width="2.5" stroke-linecap="round" stroke-linejoin="round"/>
<path d="M97.7641 17.2962C98.578 17.2069 100.917 16.8667 100.917 13.1952C100.917 11.749 99.531 10.7057 99.531 9.90369C99.531 9.10173 100.006 7.66504 98.9439 6.63693C97.6536 5.38838 95.597 5.90909 93.7558 5.90909C92.0252 5.90909 91.0703 3.90418 88.7088 3.90418C88.457 3.8964 88.2085 3.96248 87.994 4.09422" stroke="#FEBA12" stroke-width="2.5" stroke-linecap="round" stroke-linejoin="round"/>
<path d="M87.9921 4.09044C88.0376 3.88194 88.0404 3.66643 88.0005 3.4568C87.9605 3.24716 87.8786 3.04772 87.7595 2.87039C87.0162 1.84799 84.9177 2.08744 83.0727 3.412C82.3744 3.90319 81.7809 4.52784 81.3268 5.24968C81.2667 5.223 81.202 5.20816 81.1362 5.20597C80.2404 5.20597 65.3488 13.1477 65.4899 16.8116C65.6119 19.9586 69.3019 24.7305 71.4576 26.7335" stroke="#222222" stroke-width="2.5" stroke-linecap="round" stroke-linejoin="round"/>
<path d="M78.304 20.8137C76.7792 19.2934 74.593 17.4633 74.0593 16.9616C74.9933 16.4752 82.4686 9.09026 83.3129 8.25409C84.2026 8.06324 85.0406 7.6834 85.7697 7.14047C87.0201 6.24159 87.832 5.07475 87.994 4.09985" stroke="#222222" stroke-width="2.5" stroke-linecap="round" stroke-linejoin="round"/>
<path d="M95.6637 15.1772C95.8143 15.0113 96.0004 14.8812 96.2082 14.7965C96.416 14.7118 96.6402 14.6747 96.8643 14.6879C97.0883 14.7011 97.3066 14.7643 97.5029 14.8728C97.6993 14.9813 97.8687 15.1324 97.9987 15.3148C98.1286 15.4973 98.2159 15.7065 98.254 15.9271C98.2921 16.1477 98.2801 16.3739 98.2188 16.5893C98.1575 16.8046 98.0485 17.0034 97.8999 17.1711C97.7512 17.3389 97.5668 17.4712 97.36 17.5584" stroke="#222222" stroke-width="2.5" stroke-miterlimit="10" stroke-linecap="round"/>
<path d="M103.061 44.7587C105.729 47.8373 114.863 58.4566 119.935 62.8674C119.931 63.3759 120.031 63.8797 120.227 64.3489C120.424 64.8181 120.713 65.243 121.078 65.5983C122.49 67.0084 124.659 67.13 125.921 65.8738C127.183 64.6177 127.065 62.4531 125.647 61.043C125.079 60.4704 124.346 60.0885 123.55 59.9503C121.13 56.0545 113.184 44.4394 109.137 39.3787" stroke="#222222" stroke-width="2.5" stroke-miterlimit="10" stroke-linecap="round"/>
<path d="M96.7996 30.4107C101.73 26.7562 109.859 35.593 109.726 37.9172C109.593 40.2414 103.345 45.3952 101.208 45.4009C98.5988 45.4047 92.6026 33.5216 96.7996 30.4107Z" stroke="#222222" stroke-width="2.5" stroke-miterlimit="10" stroke-linecap="round"/>
<path d="M101.235 60.2925C101.146 60.5125 101.009 60.7104 100.835 60.8721C99.1707 62.1758 90.4165 62.7041 83.7455 62.5463C86.9514 78.4069 109.095 130.086 110.854 132.83C112.223 133.123 115.353 131.758 115.841 130.88C116.313 130.033 103.171 66.959 101.235 60.2925Z" fill="#1C2ECC"/>
<path d="M76.6761 61.8811C76.7314 67.3466 77.6768 129.362 79.3445 134.892C80.8693 135.652 84.8719 135.842 86.2061 135.272C87.4126 134.757 94.4914 75.7197 95.8333 62.092C89.5378 62.8123 79.5218 62.7078 76.6761 61.8811Z" fill="#2947F2"/>
</svg>
