<svg width="131" height="163" viewBox="0 0 131 163" fill="none" xmlns="http://www.w3.org/2000/svg">
<path d="M106.649 78.0309V142.536C106.649 144.8 105.75 146.971 104.149 148.572C102.548 150.173 100.377 151.072 98.1132 151.072H47.9702C45.7064 151.072 43.5354 150.173 41.9346 148.572C40.3339 146.971 39.4346 144.8 39.4346 142.536V14.5376C39.4346 12.2738 40.3339 10.1027 41.9346 8.50199C43.5354 6.90124 45.7064 6.00195 47.9702 6.00195H98.1132C100.377 6.00195 102.548 6.90124 104.149 8.50199C105.75 10.1027 106.649 12.2738 106.649 14.5376V78.0309Z" fill="white"/>
<path d="M94.3047 153.784L83.2169 138.437C83.2169 138.437 75.9633 131.878 73.0447 129.664C73.0191 131.927 73.1669 148.156 73.8562 153.784H94.3047Z" fill="#1C2ECC"/>
<path d="M104.591 151.324H106.649V131.124C101.454 132.783 76.265 132.934 73.0447 129.664C73.0447 129.917 77.8789 143.031 86.5759 153.187H104.591V151.324Z" fill="#2947F2"/>
<path d="M67.3658 90.4143C66.8167 91.0176 66.8137 92.1791 66.8137 92.1791C66.138 90.1534 51.3292 53.3108 51.3292 53.3108C51.3292 53.3108 48.2627 54.611 51.7967 61.5734C50.6534 62.2492 47.4633 64.7998 48.7801 68.9009C49.7726 71.984 51.9476 73.0579 53.3051 73.0579C53.0713 75.3732 58.0156 98.9454 58.6567 100.078C60.165 102.742 63.0761 105.659 64.788 105.742C66.7489 105.84 70.758 104.033 73.4957 102.303" stroke="#222222" stroke-width="2.5" stroke-linecap="round" stroke-linejoin="round"/>
<path d="M82.615 75.791C75.1608 77.1787 65.7066 85.9436 65.954 87.8351C66.1847 89.6194 70.8214 94.7734 74.3554 97.2259" stroke="#222222" stroke-width="2.5" stroke-miterlimit="10" stroke-linecap="round"/>
<path d="M87.2894 71.637C71.3011 80.6523 70.9994 126.842 73.0447 129.664C75.0478 132.439 98.9579 133.166 106.649 131.243" stroke="#222222" stroke-width="2.5" stroke-miterlimit="10" stroke-linecap="round"/>
<path d="M106.062 77.1333C103.867 73.9386 100.979 71.6143 97.2308 70.6399" stroke="#222222" stroke-width="2.5" stroke-miterlimit="10" stroke-linecap="round"/>
<path d="M104.745 101.12C105.15 102.853 105.979 106.098 106.809 109.178" stroke="#222222" stroke-width="2.5" stroke-miterlimit="10" stroke-linecap="round"/>
<path d="M99.9324 97.2229C100.711 99.4673 101.564 101.021 102.18 101.22C102.934 101.463 104.649 101.22 106.649 100.688" stroke="#222222" stroke-width="2.5" stroke-miterlimit="10" stroke-linecap="round"/>
<path d="M106.649 77.5301C105.326 76.5587 103.99 76.0821 102.72 76.3777" stroke="#222222" stroke-width="2.5" stroke-miterlimit="10" stroke-linecap="round"/>
<path d="M87.2894 71.637V69.0457" stroke="#222222" stroke-width="2.5" stroke-miterlimit="10" stroke-linecap="round"/>
<path d="M97.2308 64.293V75.0579C97.2308 75.9297 94.8884 76.4682 92.4766 76.5436" stroke="#222222" stroke-width="2.5" stroke-miterlimit="10" stroke-linecap="round"/>
<path d="M97.1871 64.293C98.0921 64.7892 99.4587 64.2598 100.329 63.0441C101.248 61.7605 101.266 60.2009 100.37 59.5583C100.136 59.3945 99.8601 59.3008 99.5748 59.2883" stroke="#222222" stroke-width="2.5" stroke-miterlimit="10" stroke-linecap="round"/>
<path d="M82.9017 53.3516C82.7498 53.6743 82.6065 54.0047 82.4718 54.3425C80.0403 60.492 81.7794 66.9431 86.3558 68.7516C86.6613 68.8726 86.9754 68.9709 87.2954 69.0458" stroke="#222222" stroke-width="2.5" stroke-miterlimit="10" stroke-linecap="round"/>
<path d="M102.893 60.6684C104.744 60.1148 107.068 58.795 107.068 56.1434C107.068 54.4842 105.519 52.6591 105.225 50.5731C105.074 49.5173 105.403 45.1205 104.169 43.6348C101.605 40.5532 100.097 41.1837 98.1358 40.4673C94.7209 39.2184 93.4132 37.1489 90.5941 37.1489C87.3935 37.1489 86.0978 38.8081 83.8066 38.8081C81.1867 38.8081 79.0373 37.6014 75.36 37.6014C73.3991 37.6014 70.835 40.1656 70.835 42.4281C70.835 47.7766 75.8125 47.0104 75.8125 48.3106C75.8125 49.2156 75.5108 49.9336 75.5108 51.1764C75.5108 51.8356 75.8607 52.3831 76.3555 52.8009" stroke="#FEBA12" stroke-width="2.5" stroke-miterlimit="10" stroke-linecap="round"/>
<path d="M55.0518 36.2244H47.5237C45.2928 36.2244 43.4844 38.0328 43.4844 40.2637V47.7918C43.4844 50.0226 45.2928 51.8311 47.5237 51.8311H55.0518C57.2826 51.8311 59.0911 50.0226 59.0911 47.7918V40.2637C59.0911 38.0328 57.2826 36.2244 55.0518 36.2244Z" stroke="#333333" stroke-width="2.5" stroke-miterlimit="10"/>
<path d="M57.2299 40.6587C58.9934 40.6587 60.423 39.2291 60.423 37.4656C60.423 35.7021 58.9934 34.2725 57.2299 34.2725C55.4664 34.2725 54.0367 35.7021 54.0367 37.4656C54.0367 39.2291 55.4664 40.6587 57.2299 40.6587Z" fill="#808080"/>
<path d="M98.3711 1.40747H47.7122C44.4351 1.40747 41.2923 2.70929 38.975 5.02654C36.6578 7.34379 35.356 10.4867 35.356 13.7637V143.305C35.356 146.583 36.6578 149.725 38.975 152.043C41.2923 154.36 44.4351 155.662 47.7122 155.662H98.3711C101.648 155.662 104.791 154.36 107.108 152.043C109.426 149.725 110.727 146.583 110.727 143.305V13.7637C110.727 10.4867 109.426 7.34379 107.108 5.02654C104.791 2.70929 101.648 1.40747 98.3711 1.40747ZM106.649 78.0308V142.536C106.649 143.657 106.428 144.767 105.999 145.803C105.57 146.838 104.941 147.779 104.149 148.572C103.356 149.364 102.415 149.993 101.38 150.422C100.344 150.851 99.2341 151.072 98.1132 151.072H47.9702C45.7064 151.072 43.5353 150.173 41.9345 148.572C40.3338 146.971 39.4345 144.8 39.4345 142.536V14.5375C39.4345 12.2737 40.3338 10.1026 41.9345 8.50189C43.5353 6.90114 45.7064 6.00185 47.9702 6.00185H56.2796V8.63088C56.2796 8.94226 56.3409 9.25058 56.4601 9.53826C56.5792 9.82593 56.7539 10.0873 56.974 10.3075C57.1942 10.5277 57.4556 10.7023 57.7433 10.8215C58.031 10.9406 58.3393 11.002 58.6507 11.002H87.4267C87.738 11.002 88.0464 10.9406 88.334 10.8215C88.6217 10.7023 88.8831 10.5277 89.1033 10.3075C89.3235 10.0873 89.4981 9.82593 89.6173 9.53826C89.7364 9.25058 89.7978 8.94226 89.7978 8.63088V6.00185H98.1072C99.2281 6.00185 100.338 6.22263 101.374 6.65159C102.409 7.08055 103.35 7.70928 104.143 8.50189C104.935 9.2945 105.564 10.2355 105.993 11.2711C106.422 12.3067 106.643 13.4166 106.643 14.5375L106.649 78.0308Z" fill="white" stroke="#222222" stroke-width="2.5" stroke-miterlimit="10"/>
<path d="M124.521 20.5723H106.219C102.913 20.5723 100.232 23.2525 100.232 26.5588C100.232 29.8651 102.913 32.5454 106.219 32.5454H124.521C127.827 32.5454 130.508 29.8651 130.508 26.5588C130.508 23.2525 127.827 20.5723 124.521 20.5723Z" fill="#808080"/>
<path d="M107.349 29.7627L102.157 24.5635V34.9619L107.349 29.7627Z" fill="#808080"/>
<path d="M109.193 28.2679C110.029 28.2679 110.706 27.5906 110.706 26.755C110.706 25.9195 110.029 25.2422 109.193 25.2422C108.358 25.2422 107.681 25.9195 107.681 26.755C107.681 27.5906 108.358 28.2679 109.193 28.2679Z" fill="white"/>
<path d="M115.37 28.2679C116.206 28.2679 116.883 27.5906 116.883 26.755C116.883 25.9195 116.206 25.2422 115.37 25.2422C114.535 25.2422 113.857 25.9195 113.857 26.755C113.857 27.5906 114.535 28.2679 115.37 28.2679Z" fill="white"/>
<path d="M121.548 28.2679C122.384 28.2679 123.061 27.5906 123.061 26.755C123.061 25.9195 122.384 25.2422 121.548 25.2422C120.713 25.2422 120.035 25.9195 120.035 26.755C120.035 27.5906 120.713 28.2679 121.548 28.2679Z" fill="white"/>
<path d="M27.9244 138.711C28.2261 137.848 28.3995 136.779 28.3995 135.438C28.3995 115.302 4.56787 120.726 4.56787 104.004" stroke="#60E298" stroke-width="9" stroke-miterlimit="10" stroke-linecap="round"/>
<path d="M8.75952 103.888C10.0491 105.57 5.72022 107.499 5.10181 106.689C4.48339 105.879 7.37788 102.087 8.75952 103.888Z" fill="#222222"/>
<path d="M29.8626 74.284C31.4343 76.3308 26.7901 78.2057 26.0375 77.2208C25.2848 76.2358 28.1808 72.0924 29.8626 74.284Z" fill="#222222"/>
<path d="M28.6017 82.7625C29.8521 85.0251 23.7751 86.8456 23.1717 85.7641C22.5684 84.6827 27.2684 80.3447 28.6017 82.7625Z" fill="#222222"/>
<path d="M28.9683 89.2031C30.6063 91.1971 24.9606 94.0901 24.1763 93.1354C23.392 92.1806 27.2171 87.0673 28.9683 89.2031Z" fill="#222222"/>
<path d="M30.8943 96.44C32.5324 98.4355 26.8867 101.328 26.1023 100.374C25.318 99.4189 29.1431 94.3057 30.8943 96.44Z" fill="#222222"/>
<path d="M32.5762 103.172C34.0649 104.982 29.1281 107.455 28.4146 106.586C27.7012 105.718 30.9818 101.229 32.5762 103.172Z" fill="#222222"/>
<path d="M34.8461 110.55C36.3349 112.36 31.3981 114.833 30.6847 113.964C29.9712 113.095 33.2518 108.608 34.8461 110.55Z" fill="#222222"/>
<path d="M0.546609 102.556C1.08508 100.507 5.26317 102.745 5.00524 103.727C4.74732 104.709 -0.0280667 104.753 0.546609 102.556Z" fill="#222222"/>
<path d="M0.475778 109.789C0.21182 107.686 4.92235 108.208 5.04905 109.216C5.17575 110.223 0.757837 112.041 0.475778 109.789Z" fill="#222222"/>
<path d="M4.63723 116.343C3.26163 114.723 7.48497 112.572 8.14562 113.347C8.80627 114.122 6.10785 118.064 4.63723 116.343Z" fill="#222222"/>
<path d="M9.86359 119.88C9.03552 117.928 13.7114 117.147 14.1065 118.082C14.5017 119.017 10.7475 121.969 9.86359 119.88Z" fill="#222222"/>
<path d="M16.8834 123.564C16.0569 121.613 20.7312 120.831 21.1279 121.767C21.5246 122.702 17.7688 125.653 16.8834 123.564Z" fill="#222222"/>
<path d="M22.14 128.911C21.9575 126.8 26.6454 127.504 26.7328 128.516C26.8203 129.528 22.3345 131.172 22.14 128.911Z" fill="#222222"/>
<path d="M11.0281 108.416C12.6872 109.739 8.94203 112.65 8.15015 112.016C7.35828 111.383 9.25426 106.998 11.0281 108.416Z" fill="#222222"/>
<path d="M14.7884 112.197C16.6135 113.276 13.3193 116.683 12.4444 116.167C11.5696 115.652 12.8351 111.044 14.7884 112.197Z" fill="#222222"/>
<path d="M21.6769 115.908C23.3934 117.152 19.7915 120.235 18.9694 119.638C18.1474 119.041 19.8397 114.575 21.6769 115.908Z" fill="#222222"/>
<path d="M27.4809 138.666C29.573 135.212 32.1281 129.999 32.1281 124.101C32.1281 107.842 23.0494 99.6965 23.0494 88.0823C23.0494 85.8862 23.2485 78.969 26.7403 76.1665" stroke="#27C96C" stroke-width="9" stroke-miterlimit="10" stroke-linecap="round"/>
<path d="M34.7481 161.657H21.4084C21.105 161.658 20.8093 161.562 20.5634 161.384C20.3174 161.207 20.1339 160.956 20.0389 160.668L13.4022 140.559C13.3311 140.342 13.3125 140.111 13.3479 139.885C13.3834 139.659 13.4719 139.445 13.6062 139.261C13.7405 139.076 13.9167 138.926 14.1204 138.822C14.3241 138.719 14.5494 138.665 14.7778 138.666H41.4406C41.6692 138.666 41.8946 138.72 42.0981 138.824C42.3016 138.928 42.4775 139.079 42.6112 139.265C42.745 139.45 42.8327 139.665 42.8673 139.891C42.9019 140.117 42.8823 140.348 42.8102 140.565L36.1162 160.672C36.0203 160.959 35.8366 161.209 35.5911 161.386C35.3456 161.562 35.0507 161.657 34.7481 161.657Z" fill="white" stroke="#222222" stroke-width="2.5" stroke-miterlimit="10" stroke-linecap="round"/>
<path d="M36.9895 119.005C37.7708 121.219 32.2865 121.855 31.9139 120.795C31.5414 119.735 36.1539 116.635 36.9895 119.005Z" fill="#222222"/>
<path d="M28.027 122.278C29.7677 120.705 32.4691 125.518 31.635 126.272C30.8009 127.026 26.1627 123.963 28.027 122.278Z" fill="#222222"/>
<path d="M26.6243 116.265C27.7782 114.222 31.8627 117.934 31.3107 118.912C30.7586 119.891 25.389 118.454 26.6243 116.265Z" fill="#222222"/>
<path d="M25.312 109.146C26.4658 107.102 30.5519 110.814 29.9984 111.792C29.4448 112.769 24.0766 111.333 25.312 109.146Z" fill="#222222"/>
<path d="M22.9711 103.484C23.7252 101.259 28.4312 104.14 28.0708 105.205C27.7103 106.27 22.1671 105.864 22.9711 103.484Z" fill="#222222"/>
<path d="M19.6633 95.6859C20.7614 93.6104 24.9425 97.2093 24.4221 98.2018C23.9017 99.1943 18.4958 97.9062 19.6633 95.6859Z" fill="#222222"/>
<path d="M18.1021 86.9949C19.3857 85.034 23.2229 88.998 22.6075 89.9392C21.9921 90.8804 16.728 89.0975 18.1021 86.9949Z" fill="#222222"/>
<path d="M18.87 79.5151C20.1536 77.5543 23.9908 81.5182 23.3769 82.4594C22.763 83.4006 17.4959 81.6177 18.87 79.5151Z" fill="#222222"/>
<path d="M36.9895 126.709C37.7708 128.922 32.2865 129.559 31.9139 128.498C31.5414 127.438 36.1539 124.337 36.9895 126.709Z" fill="#222222"/>
<path d="M85.6166 55.1042C85.6166 55.8584 85.4658 58.2718 84.5608 58.8751" stroke="#222222" stroke-width="2.5" stroke-miterlimit="10" stroke-linecap="round"/>
<path d="M85.0887 62.8721C86.5971 62.8721 87.9546 61.9671 87.9546 61.3638" stroke="#222222" stroke-width="2.5" stroke-miterlimit="10" stroke-linecap="round"/>
<path d="M88.935 56.3862C89.2266 56.3862 89.4629 55.981 89.4629 55.4812C89.4629 54.9814 89.2266 54.5762 88.935 54.5762C88.6435 54.5762 88.4071 54.9814 88.4071 55.4812C88.4071 55.981 88.6435 56.3862 88.935 56.3862Z" fill="#222222"/>
<path d="M34.7481 161.657H21.4084C21.105 161.658 20.8093 161.562 20.5634 161.384C20.3174 161.207 20.1339 160.956 20.0389 160.668L13.4022 140.559C13.3311 140.342 13.3125 140.111 13.3479 139.885C13.3834 139.659 13.4719 139.445 13.6062 139.261C13.7405 139.076 13.9167 138.926 14.1204 138.822C14.3241 138.719 14.5494 138.665 14.7778 138.666H41.4406C41.6692 138.666 41.8946 138.72 42.0981 138.824C42.3016 138.928 42.4775 139.079 42.6112 139.265C42.745 139.45 42.8327 139.665 42.8673 139.891C42.9019 140.117 42.8823 140.348 42.8102 140.565L36.1162 160.672C36.0203 160.959 35.8366 161.209 35.5911 161.386C35.3456 161.562 35.0507 161.657 34.7481 161.657V161.657Z" stroke="#333333" stroke-width="2.5" stroke-miterlimit="10" stroke-linecap="round"/>
</svg>
